<?xml version="1.0" encoding="UTF-8"?>
<!-- Generated by src/build.js — do not edit. Edit src/ and run npm run build. Built from src/favicon.js. -->
<svg xmlns="http://www.w3.org/2000/svg" viewBox="0 0 64 64">
<title>Glam Team Cleaners</title>
<rect x="0" y="0" width="64" height="64" rx="14" fill="#2c1d20"/>
<path fill="#fcfaf6" d="M14 32A7 7 0 0 1 21 39V58A2 2 0 0 1 19 60H9A2 2 0 0 1 7 58V39A7 7 0 0 1 14 32z"/>
<path fill="#c86c82" d="M32 10A7 7 0 0 1 39 17V58A2 2 0 0 1 37 60H27A2 2 0 0 1 25 58V17A7 7 0 0 1 32 10z"/>
<path fill="#fcfaf6" d="M50 22A7 7 0 0 1 57 29V58A2 2 0 0 1 55 60H45A2 2 0 0 1 43 58V29A7 7 0 0 1 50 22z"/>
</svg>
